<svg xmlns="http://www.w3.org/2000/svg" xmlns:xlink="http://www.w3.org/1999/xlink" width="500" zoomAndPan="magnify" viewBox="0 0 375 374.999991" height="500" preserveAspectRatio="xMidYMid meet" version="1.0"><defs><g/><clipPath id="33eea498a0"><rect x="0" width="108" y="0" height="221"/></clipPath><clipPath id="319b32e83a"><rect x="0" width="116" y="0" height="221"/></clipPath><clipPath id="c43ef30481"><path d="M 10.242188 213.089844 L 375 213.089844 L 375 239.488281 L 10.242188 239.488281 Z M 10.242188 213.089844 " clip-rule="nonzero"/></clipPath><clipPath id="a0e812c5ce"><path d="M 0.242188 0.0898438 L 365 0.0898438 L 365 26.488281 L 0.242188 26.488281 Z M 0.242188 0.0898438 " clip-rule="nonzero"/></clipPath><clipPath id="5478220d6d"><rect x="0" width="365" y="0" height="27"/></clipPath></defs><rect x="-37.5" width="450" fill="#ffffff" y="-37.499999" height="449.999989" fill-opacity="1"/><rect x="-37.5" width="450" fill="#ededed" y="-37.499999" height="449.999989" fill-opacity="1"/><g transform="matrix(1, 0, 0, 1, 207, 55)"><g clip-path="url(#33eea498a0)"><g fill="#ededed" fill-opacity="1"><g transform="translate(8.391201, 202.152307)"><g><path d="M 70.078125 -87.542969 C 79.046875 -83.414062 85.941406 -77.359375 90.757812 -69.382812 C 95.503906 -61.515625 97.878906 -52.609375 97.878906 -42.667969 C 97.878906 -32.097656 95.3125 -23.054688 90.183594 -15.539062 C 85.152344 -8.171875 78.632812 -2.574219 70.625 1.25 C 62.789062 4.996094 54.449219 6.867188 45.597656 6.867188 L 38.546875 6.867188 L 38.546875 -33.238281 L 45.597656 -33.238281 C 48.847656 -33.238281 51.671875 -34.214844 54.070312 -36.175781 C 56.050781 -37.792969 57.042969 -39.957031 57.042969 -42.667969 C 57.042969 -44.824219 56.542969 -46.578125 55.546875 -47.929688 C 54.28125 -49.640625 52.714844 -50.984375 50.84375 -51.960938 C 48.9375 -52.957031 47.089844 -53.492188 45.300781 -53.570312 L 45.597656 -60.429688 L 45.597656 -53.5625 C 44.757812 -53.5625 42.089844 -53.789062 37.589844 -54.238281 C 32.566406 -54.742188 27.023438 -56.367188 20.964844 -59.121094 C 12.179688 -63.230469 5.355469 -68.96875 0.496094 -76.332031 C -4.414062 -83.765625 -6.867188 -92.445312 -6.867188 -102.367188 C -6.867188 -112.890625 -4.324219 -122.023438 0.761719 -129.761719 C 5.761719 -137.367188 12.285156 -143.214844 20.324219 -147.308594 C 28.261719 -151.347656 36.6875 -153.363281 45.597656 -153.363281 C 55.136719 -153.363281 63.757812 -151.367188 71.464844 -147.375 C 79.28125 -143.324219 85.503906 -137.632812 90.136719 -130.292969 C 94.789062 -122.917969 97.1875 -114.4375 97.328125 -104.847656 L 90.460938 -104.746094 L 96.605469 -107.816406 C 97.179688 -106.667969 97.429688 -105.453125 97.359375 -104.171875 C 97.300781 -103.15625 97.042969 -102.1875 96.582031 -101.261719 C 96.09375 -100.285156 95.390625 -99.402344 94.472656 -98.617188 C 92.761719 -97.148438 90.753906 -96.414062 88.449219 -96.414062 L 65.558594 -96.414062 C 63.375 -96.414062 61.429688 -97.148438 59.714844 -98.617188 C 57.6875 -100.351562 56.675781 -102.394531 56.675781 -104.746094 L 63.542969 -104.746094 L 56.679688 -104.585938 C 56.609375 -107.535156 55.746094 -109.59375 54.085938 -110.765625 C 51.734375 -112.429688 48.902344 -113.261719 45.597656 -113.261719 C 42.246094 -113.261719 39.40625 -112.292969 37.074219 -110.359375 C 35.125 -108.742188 34.152344 -106.078125 34.152344 -102.367188 C 34.152344 -99.449219 35.101562 -97.304688 36.996094 -95.929688 C 39.578125 -94.054688 42.445312 -93.117188 45.597656 -93.117188 C 46.097656 -93.117188 47.453125 -93.050781 49.664062 -92.921875 C 52.074219 -92.78125 55.058594 -92.339844 58.621094 -91.601562 C 62.441406 -90.808594 66.324219 -89.425781 70.277344 -87.449219 L 67.207031 -81.304688 Z M 64.335938 -75.066406 L 64.234375 -75.113281 L 64.132812 -75.164062 C 61.25 -76.605469 58.480469 -77.601562 55.832031 -78.152344 C 52.921875 -78.757812 50.597656 -79.109375 48.855469 -79.210938 C 46.914062 -79.328125 45.828125 -79.382812 45.597656 -79.382812 C 39.472656 -79.382812 33.914062 -81.191406 28.929688 -84.8125 C 23.253906 -88.929688 20.417969 -94.78125 20.417969 -102.367188 C 20.417969 -110.375 23.046875 -116.558594 28.300781 -120.925781 C 33.171875 -124.972656 38.9375 -126.996094 45.597656 -126.996094 C 51.8125 -126.996094 57.285156 -125.324219 62.015625 -121.980469 C 67.433594 -118.148438 70.234375 -112.457031 70.410156 -104.90625 L 70.410156 -104.746094 C 70.410156 -106.066406 70.050781 -107.242188 69.328125 -108.273438 C 69.105469 -108.59375 68.878906 -108.851562 68.652344 -109.042969 C 67.792969 -109.78125 66.761719 -110.148438 65.558594 -110.148438 L 88.449219 -110.148438 C 87.363281 -110.148438 86.394531 -109.78125 85.535156 -109.042969 C 85.046875 -108.625 84.632812 -108.078125 84.296875 -107.40625 C 83.910156 -106.632812 83.695312 -105.808594 83.644531 -104.933594 C 83.582031 -103.785156 83.808594 -102.703125 84.320312 -101.675781 L 83.617188 -103.078125 L 83.597656 -104.644531 C 83.492188 -111.660156 81.800781 -117.765625 78.519531 -122.964844 C 75.214844 -128.199219 70.757812 -132.273438 65.144531 -135.179688 C 59.421875 -138.148438 52.90625 -139.628906 45.597656 -139.628906 C 38.882812 -139.628906 32.535156 -138.109375 26.554688 -135.066406 C 20.675781 -132.078125 15.90625 -127.792969 12.238281 -122.214844 C 8.65625 -116.769531 6.867188 -110.152344 6.867188 -102.367188 C 6.867188 -95.195312 8.5625 -89.039062 11.957031 -83.898438 C 15.394531 -78.691406 20.292969 -74.597656 26.648438 -71.625 C 31.332031 -69.496094 35.433594 -68.257812 38.957031 -67.90625 C 43 -67.5 45.214844 -67.296875 45.597656 -67.296875 L 45.746094 -67.296875 L 45.894531 -67.289062 C 49.71875 -67.125 53.488281 -66.074219 57.199219 -64.136719 C 60.941406 -62.183594 64.074219 -59.5 66.597656 -56.085938 C 69.382812 -52.308594 70.777344 -47.835938 70.777344 -42.667969 C 70.777344 -35.613281 68.105469 -29.902344 62.757812 -25.539062 C 57.832031 -21.515625 52.113281 -19.503906 45.597656 -19.503906 L 45.414062 -19.503906 L 45.414062 -26.371094 L 52.28125 -26.371094 L 52.28125 0 L 45.414062 0 L 45.414062 -6.867188 L 45.597656 -6.867188 C 52.371094 -6.867188 58.742188 -8.292969 64.703125 -11.140625 C 70.488281 -13.90625 75.199219 -17.953125 78.839844 -23.28125 C 82.375 -28.464844 84.144531 -34.925781 84.144531 -42.667969 C 84.144531 -50.0625 82.429688 -56.597656 78.996094 -62.285156 C 75.636719 -67.855469 70.746094 -72.117188 64.335938 -75.066406 Z M 64.335938 -75.066406 "/></g></g></g><g fill="#2b2b2b" fill-opacity="1"><g transform="translate(8.391201, 202.152307)"><g><path d="M 67.203125 -81.3125 C 74.898438 -77.769531 80.789062 -72.609375 84.875 -65.828125 C 88.96875 -59.054688 91.015625 -51.335938 91.015625 -42.671875 C 91.015625 -33.515625 88.847656 -25.757812 84.515625 -19.40625 C 80.179688 -13.0625 74.5625 -8.238281 67.65625 -4.9375 C 60.757812 -1.644531 53.40625 0 45.59375 0 C 45.59375 0 45.535156 0 45.421875 0 L 45.421875 -26.375 C 45.535156 -26.375 45.59375 -26.375 45.59375 -26.375 C 50.476562 -26.375 54.75 -27.867188 58.40625 -30.859375 C 62.070312 -33.847656 63.90625 -37.785156 63.90625 -42.671875 C 63.90625 -46.328125 62.957031 -49.4375 61.0625 -52 C 59.175781 -54.570312 56.828125 -56.585938 54.015625 -58.046875 C 51.210938 -59.515625 48.40625 -60.3125 45.59375 -60.4375 C 44.988281 -60.4375 42.546875 -60.648438 38.265625 -61.078125 C 33.992188 -61.503906 29.175781 -62.9375 23.8125 -65.375 C 16.238281 -68.914062 10.375 -73.828125 6.21875 -80.109375 C 2.070312 -86.398438 0 -93.816406 0 -102.359375 C 0 -111.515625 2.164062 -119.390625 6.5 -125.984375 C 10.832031 -132.578125 16.476562 -137.644531 23.4375 -141.1875 C 30.394531 -144.726562 37.78125 -146.5 45.59375 -146.5 C 54.019531 -146.5 61.585938 -144.757812 68.296875 -141.28125 C 75.015625 -137.800781 80.359375 -132.914062 84.328125 -126.625 C 88.296875 -120.34375 90.34375 -113.050781 90.46875 -104.75 C 90.582031 -104.5 90.425781 -104.191406 90 -103.828125 C 89.570312 -103.460938 89.054688 -103.28125 88.453125 -103.28125 L 65.5625 -103.28125 C 65.070312 -103.28125 64.613281 -103.460938 64.1875 -103.828125 C 63.757812 -104.191406 63.546875 -104.5 63.546875 -104.75 C 63.421875 -110 61.585938 -113.875 58.046875 -116.375 C 54.503906 -118.875 50.351562 -120.125 45.59375 -120.125 C 40.59375 -120.125 36.289062 -118.628906 32.6875 -115.640625 C 29.082031 -112.648438 27.28125 -108.222656 27.28125 -102.359375 C 27.28125 -97.117188 29.171875 -93.125 32.953125 -90.375 C 36.742188 -87.625 40.957031 -86.25 45.59375 -86.25 C 45.957031 -86.25 47.175781 -86.1875 49.25 -86.0625 C 51.332031 -85.945312 53.988281 -85.550781 57.21875 -84.875 C 60.457031 -84.207031 63.785156 -83.019531 67.203125 -81.3125 Z M 67.203125 -81.3125 "/></g></g></g></g></g><g transform="matrix(1, 0, 0, 1, 131, 55)"><g clip-path="url(#319b32e83a)"><g fill="#ededed" fill-opacity="1"><g transform="translate(8.540545, 202.152307)"><g><path d="M 49.261719 -153.363281 C 50.671875 -153.363281 53.304688 -153.203125 57.15625 -152.882812 C 61.292969 -152.539062 65.9375 -151.597656 71.09375 -150.054688 C 76.488281 -148.445312 81.738281 -145.878906 86.851562 -142.355469 C 92.269531 -138.621094 96.734375 -133.527344 100.246094 -127.074219 C 103.796875 -120.558594 105.570312 -112.382812 105.570312 -102.546875 C 105.570312 -94.375 104.273438 -87.371094 101.683594 -81.539062 C 99.078125 -75.679688 95.601562 -70.832031 91.25 -67 C 87.136719 -63.375 82.753906 -60.503906 78.105469 -58.390625 C 73.621094 -56.351562 69.277344 -54.886719 65.066406 -53.988281 C 61.027344 -53.128906 57.535156 -52.59375 54.589844 -52.390625 C 51.808594 -52.195312 50.03125 -52.097656 49.261719 -52.097656 L 27.46875 -52.097656 L 27.46875 -58.964844 L 34.335938 -58.964844 L 34.335938 -1.648438 C 34.335938 0.941406 33.425781 3.054688 31.605469 4.691406 C 29.992188 6.140625 28.003906 6.867188 25.636719 6.867188 L 1.832031 6.867188 C -0.535156 6.867188 -2.523438 6.140625 -4.136719 4.691406 C -5.957031 3.054688 -6.867188 0.941406 -6.867188 -1.648438 L -6.867188 -92.933594 L 49.261719 -92.933594 C 49.988281 -92.933594 51.363281 -93.042969 53.375 -93.261719 C 55.066406 -93.445312 56.953125 -93.921875 59.042969 -94.699219 C 60.496094 -95.242188 61.742188 -96.15625 62.789062 -97.441406 C 63.597656 -98.441406 64 -100.140625 64 -102.546875 C 64 -104.945312 63.570312 -106.671875 62.707031 -107.730469 C 61.570312 -109.125 60.246094 -110.121094 58.730469 -110.71875 C 56.621094 -111.554688 54.714844 -112.085938 53.011719 -112.316406 C 51.054688 -112.578125 49.804688 -112.710938 49.261719 -112.710938 L -6.867188 -112.710938 L -6.867188 -144.851562 C -6.867188 -147.4375 -5.957031 -149.550781 -4.136719 -151.191406 C -2.523438 -152.640625 -0.535156 -153.363281 1.832031 -153.363281 Z M 49.261719 -139.628906 L 1.832031 -139.628906 C 2.976562 -139.628906 4.050781 -140.082031 5.050781 -140.980469 C 6.261719 -142.070312 6.867188 -143.359375 6.867188 -144.851562 L 6.867188 -119.578125 L 0 -119.578125 L 0 -126.445312 L 49.261719 -126.445312 C 50.421875 -126.445312 52.285156 -126.273438 54.847656 -125.925781 C 57.660156 -125.546875 60.636719 -124.734375 63.777344 -123.492188 C 67.515625 -122.015625 70.703125 -119.65625 73.351562 -116.410156 C 76.273438 -112.828125 77.734375 -108.207031 77.734375 -102.546875 C 77.734375 -96.898438 76.308594 -92.3125 73.457031 -88.792969 C 70.835938 -85.5625 67.628906 -83.242188 63.832031 -81.828125 C 60.671875 -80.652344 57.679688 -79.910156 54.851562 -79.605469 C 52.347656 -79.335938 50.484375 -79.199219 49.261719 -79.199219 L 0 -79.199219 L 0 -86.066406 L 6.867188 -86.066406 L 6.867188 -1.648438 C 6.867188 -3.136719 6.261719 -4.425781 5.050781 -5.515625 C 4.050781 -6.417969 2.976562 -6.867188 1.832031 -6.867188 L 25.636719 -6.867188 C 24.492188 -6.867188 23.417969 -6.417969 22.417969 -5.515625 C 21.207031 -4.425781 20.601562 -3.136719 20.601562 -1.648438 L 20.601562 -65.832031 L 49.261719 -65.832031 C 49.710938 -65.832031 51.167969 -65.917969 53.632812 -66.089844 C 55.9375 -66.25 58.792969 -66.695312 62.203125 -67.421875 C 65.441406 -68.109375 68.847656 -69.269531 72.421875 -70.894531 C 75.828125 -72.441406 79.078125 -74.578125 82.167969 -77.300781 C 85.019531 -79.816406 87.339844 -83.085938 89.132812 -87.117188 C 90.933594 -91.171875 91.835938 -96.316406 91.835938 -102.546875 C 91.835938 -110.050781 90.617188 -116.035156 88.183594 -120.507812 C 85.71875 -125.039062 82.675781 -128.554688 79.058594 -131.046875 C 75.136719 -133.75 71.171875 -135.699219 67.164062 -136.894531 C 62.917969 -138.164062 59.203125 -138.929688 56.015625 -139.195312 C 52.542969 -139.484375 50.289062 -139.628906 49.261719 -139.628906 Z M 49.261719 -139.628906 "/></g></g></g><g fill="#2b2b2b" fill-opacity="1"><g transform="translate(8.540545, 202.152307)"><g><path d="M 49.265625 -146.5 C 50.484375 -146.5 52.921875 -146.34375 56.578125 -146.03125 C 60.242188 -145.726562 64.425781 -144.875 69.125 -143.46875 C 73.832031 -142.070312 78.441406 -139.816406 82.953125 -136.703125 C 87.472656 -133.585938 91.226562 -129.28125 94.21875 -123.78125 C 97.207031 -118.289062 98.703125 -111.210938 98.703125 -102.546875 C 98.703125 -95.347656 97.601562 -89.273438 95.40625 -84.328125 C 93.207031 -79.378906 90.304688 -75.316406 86.703125 -72.140625 C 83.109375 -68.972656 79.296875 -66.472656 75.265625 -64.640625 C 71.234375 -62.804688 67.351562 -61.492188 63.625 -60.703125 C 59.90625 -59.910156 56.734375 -59.421875 54.109375 -59.234375 C 51.484375 -59.054688 49.867188 -58.96875 49.265625 -58.96875 L 27.46875 -58.96875 L 27.46875 -1.640625 C 27.46875 -0.546875 26.859375 0 25.640625 0 L 1.828125 0 C 0.609375 0 0 -0.546875 0 -1.640625 L 0 -86.0625 L 49.265625 -86.0625 C 50.234375 -86.0625 51.847656 -86.179688 54.109375 -86.421875 C 56.367188 -86.671875 58.8125 -87.285156 61.4375 -88.265625 C 64.0625 -89.242188 66.289062 -90.859375 68.125 -93.109375 C 69.957031 -95.367188 70.875 -98.515625 70.875 -102.546875 C 70.875 -106.578125 69.925781 -109.75 68.03125 -112.0625 C 66.132812 -114.382812 63.875 -116.066406 61.25 -117.109375 C 58.625 -118.148438 56.179688 -118.820312 53.921875 -119.125 C 51.671875 -119.425781 50.117188 -119.578125 49.265625 -119.578125 L 0 -119.578125 L 0 -144.859375 C 0 -145.953125 0.609375 -146.5 1.828125 -146.5 Z M 49.265625 -146.5 "/></g></g></g></g></g><g fill="#ededed" fill-opacity="1"><g transform="translate(66.937689, 256.814362)"><g><path d="M 106.289062 -4.925781 C 106.789062 -3.683594 107 -2.414062 106.929688 -1.128906 C 106.847656 0.320312 106.421875 1.664062 105.644531 2.90625 C 104.78125 4.289062 103.609375 5.332031 102.132812 6.027344 C 100.945312 6.582031 99.660156 6.863281 98.269531 6.863281 L 72.101562 6.863281 C 70.347656 6.863281 68.773438 6.445312 67.382812 5.609375 C 65.625 4.554688 64.417969 3.042969 63.761719 1.070312 L 70.273438 -1.097656 L 64.039062 1.773438 L 37.320312 -56.238281 L 43.554688 -59.109375 L 43.554688 -52.246094 L 27.816406 -52.246094 L 27.816406 -59.109375 L 34.679688 -59.109375 L 34.679688 -1.648438 C 34.679688 1.070312 33.671875 3.253906 31.660156 4.898438 C 30.058594 6.207031 28.105469 6.863281 25.804688 6.863281 L 1.828125 6.863281 C -0.535156 6.863281 -2.523438 6.136719 -4.132812 4.6875 C -5.953125 3.050781 -6.863281 0.941406 -6.863281 -1.648438 L -6.863281 -92.871094 L 49.226562 -92.871094 C 50.460938 -92.871094 52.1875 -92.984375 54.398438 -93.203125 C 56.074219 -93.371094 57.753906 -93.84375 59.4375 -94.621094 C 60.738281 -95.21875 61.859375 -96.167969 62.808594 -97.464844 C 63.574219 -98.519531 63.957031 -100.3125 63.957031 -102.847656 C 63.957031 -105.324219 63.542969 -107.109375 62.710938 -108.199219 C 61.703125 -109.519531 60.496094 -110.464844 59.097656 -111.035156 C 57.074219 -111.851562 55.195312 -112.375 53.457031 -112.605469 C 51.433594 -112.871094 50.023438 -113.003906 49.226562 -113.003906 L -6.863281 -113.003906 L -6.863281 -144.753906 C -6.863281 -147.339844 -5.953125 -149.453125 -4.132812 -151.089844 C -2.523438 -152.539062 -0.535156 -153.261719 1.828125 -153.261719 L 49.226562 -153.261719 C 51.121094 -153.261719 54.046875 -153.101562 58.011719 -152.78125 C 62.25 -152.441406 66.933594 -151.539062 72.066406 -150.070312 C 77.507812 -148.515625 82.710938 -145.992188 87.671875 -142.496094 C 92.929688 -138.792969 97.21875 -133.695312 100.539062 -127.195312 C 103.847656 -120.726562 105.5 -112.609375 105.5 -102.847656 C 105.5 -94.382812 104.0625 -87.09375 101.1875 -80.984375 C 98.296875 -74.84375 94.398438 -69.800781 89.492188 -65.84375 C 84.832031 -62.085938 79.714844 -59.164062 74.144531 -57.074219 L 71.734375 -63.5 L 78 -66.300781 C 82.613281 -55.980469 87.320312 -45.78125 92.113281 -35.707031 C 96.957031 -25.527344 101.648438 -15.351562 106.1875 -5.171875 L 106.238281 -5.050781 Z M 93.546875 0.167969 L 99.917969 -2.378906 L 93.648438 0.414062 C 89.160156 -9.660156 84.515625 -19.734375 79.722656 -29.808594 C 74.878906 -39.984375 70.128906 -50.28125 65.472656 -60.699219 L 62.492188 -67.363281 L 69.328125 -69.925781 C 73.515625 -71.496094 77.367188 -73.699219 80.878906 -76.53125 C 84.148438 -79.164062 86.777344 -82.59375 88.769531 -86.828125 C 90.773438 -91.085938 91.773438 -96.425781 91.773438 -102.847656 C 91.773438 -110.40625 90.621094 -116.441406 88.316406 -120.949219 C 86.027344 -125.433594 83.175781 -128.875 79.769531 -131.273438 C 76.074219 -133.878906 72.246094 -135.746094 68.296875 -136.875 C 64.035156 -138.089844 60.238281 -138.832031 56.910156 -139.101562 C 53.3125 -139.390625 50.75 -139.539062 49.226562 -139.539062 L 1.828125 -139.539062 C 2.976562 -139.539062 4.046875 -139.988281 5.046875 -140.886719 C 6.257812 -141.976562 6.863281 -143.265625 6.863281 -144.753906 L 6.863281 -119.863281 L 0 -119.863281 L 0 -126.726562 L 49.226562 -126.726562 C 50.625 -126.726562 52.632812 -126.554688 55.246094 -126.210938 C 58.144531 -125.832031 61.144531 -125.011719 64.246094 -123.753906 C 67.96875 -122.25 71.09375 -119.839844 73.621094 -116.523438 C 76.328125 -112.976562 77.683594 -108.417969 77.683594 -102.847656 C 77.683594 -97.328125 76.421875 -92.839844 73.894531 -89.375 C 71.546875 -86.160156 68.644531 -83.753906 65.1875 -82.15625 C 62.109375 -80.738281 58.96875 -79.867188 55.765625 -79.546875 C 53.097656 -79.28125 50.917969 -79.148438 49.226562 -79.148438 L 0 -79.148438 L 0 -86.011719 L 6.863281 -86.011719 L 6.863281 -1.648438 C 6.863281 -3.136719 6.257812 -4.425781 5.046875 -5.511719 C 4.046875 -6.414062 2.976562 -6.863281 1.828125 -6.863281 L 25.804688 -6.863281 C 24.839844 -6.863281 23.894531 -6.484375 22.96875 -5.722656 C 21.625 -4.625 20.953125 -3.265625 20.953125 -1.648438 L 20.953125 -65.972656 L 47.949219 -65.972656 L 76.664062 -3.625 L 76.78125 -3.269531 C 76.371094 -4.507812 75.589844 -5.472656 74.441406 -6.160156 C 73.660156 -6.628906 72.882812 -6.863281 72.101562 -6.863281 L 98.269531 -6.863281 C 97.613281 -6.863281 96.953125 -6.707031 96.285156 -6.390625 C 95.328125 -5.941406 94.566406 -5.265625 94.007812 -4.367188 C 93.535156 -3.617188 93.277344 -2.789062 93.226562 -1.890625 C 93.183594 -1.152344 93.292969 -0.464844 93.546875 0.167969 Z M 93.546875 0.167969 "/></g></g></g><g fill="#2b2b2b" fill-opacity="1"><g transform="translate(66.937689, 256.814362)"><g><path d="M 99.921875 -2.375 C 100.160156 -1.769531 100.128906 -1.222656 99.828125 -0.734375 C 99.523438 -0.242188 99.003906 0 98.265625 0 L 72.109375 0 C 71.128906 0 70.515625 -0.363281 70.265625 -1.09375 L 43.546875 -59.109375 L 27.8125 -59.109375 L 27.8125 -1.640625 C 27.8125 -0.546875 27.140625 0 25.796875 0 L 1.828125 0 C 0.609375 0 0 -0.546875 0 -1.640625 L 0 -86.015625 L 49.234375 -86.015625 C 50.691406 -86.015625 52.640625 -86.132812 55.078125 -86.375 C 57.523438 -86.613281 59.9375 -87.28125 62.3125 -88.375 C 64.6875 -89.476562 66.695312 -91.160156 68.34375 -93.421875 C 70 -95.679688 70.828125 -98.820312 70.828125 -102.84375 C 70.828125 -106.875 69.941406 -110.046875 68.171875 -112.359375 C 66.398438 -114.679688 64.234375 -116.359375 61.671875 -117.390625 C 59.109375 -118.429688 56.664062 -119.101562 54.34375 -119.40625 C 52.03125 -119.707031 50.328125 -119.859375 49.234375 -119.859375 L 0 -119.859375 L 0 -144.75 C 0 -145.851562 0.609375 -146.40625 1.828125 -146.40625 L 49.234375 -146.40625 C 50.929688 -146.40625 53.671875 -146.25 57.453125 -145.9375 C 61.242188 -145.632812 65.484375 -144.8125 70.171875 -143.46875 C 74.867188 -142.125 79.382812 -139.925781 83.71875 -136.875 C 88.050781 -133.832031 91.617188 -129.566406 94.421875 -124.078125 C 97.234375 -118.585938 98.640625 -111.507812 98.640625 -102.84375 C 98.640625 -95.40625 97.414062 -89.09375 94.96875 -83.90625 C 92.53125 -78.71875 89.269531 -74.476562 85.1875 -71.1875 C 81.101562 -67.894531 76.617188 -65.332031 71.734375 -63.5 C 76.367188 -53.132812 81.09375 -42.882812 85.90625 -32.75 C 90.726562 -22.625 95.398438 -12.5 99.921875 -2.375 Z M 99.921875 -2.375 "/></g></g></g><g clip-path="url(#c43ef30481)"><g transform="matrix(1, 0, 0, 1, 10, 213)"><g clip-path="url(#5478220d6d)"><g clip-path="url(#a0e812c5ce)"><path fill="#ededed" d="M 0.242188 0.0898438 L 375.203125 0.0898438 L 375.203125 26.488281 L 0.242188 26.488281 Z M 0.242188 0.0898438 " fill-opacity="1" fill-rule="nonzero"/></g></g></g></g><g fill="#2e2e2e" fill-opacity="1"><g transform="translate(69.081247, 235.289735)"><g><path d="M 2.3125 0 L 2.3125 -19.25 L 10.53125 -19.25 C 12 -19.25 13.273438 -18.984375 14.359375 -18.453125 C 15.441406 -17.921875 16.273438 -17.160156 16.859375 -16.171875 C 17.441406 -15.179688 17.734375 -14 17.734375 -12.625 C 17.734375 -11.207031 17.410156 -9.988281 16.765625 -8.96875 C 16.128906 -7.957031 15.234375 -7.195312 14.078125 -6.6875 L 18.0625 0 L 13 0 L 9.5625 -6 L 6.6875 -6 L 6.6875 0 Z M 6.625 -9.6875 L 9.953125 -9.6875 C 11.035156 -9.6875 11.863281 -9.9375 12.4375 -10.4375 C 13.019531 -10.9375 13.3125 -11.65625 13.3125 -12.59375 C 13.3125 -13.53125 13.019531 -14.25 12.4375 -14.75 C 11.863281 -15.257812 11.035156 -15.515625 9.953125 -15.515625 L 6.625 -15.515625 Z M 6.625 -9.6875 "/></g></g></g><g fill="#2e2e2e" fill-opacity="1"><g transform="translate(107.685702, 235.289735)"><g><path d="M 0.25 0 L 7.890625 -19.25 L 12.1875 -19.25 L 19.828125 0 L 15.15625 0 L 13.859375 -3.328125 L 6.21875 -3.328125 L 4.921875 0 Z M 7.34375 -6.765625 L 12.765625 -6.765625 L 10.03125 -13.8125 Z M 7.34375 -6.765625 "/></g></g></g><g fill="#2e2e2e" fill-opacity="1"><g transform="translate(147.004955, 235.289735)"><g><path d="M 2.3125 0 L 2.3125 -19.25 L 6.6875 -19.25 L 6.6875 0 Z M 2.3125 0 "/></g></g></g><g fill="#2e2e2e" fill-opacity="1"><g transform="translate(175.244886, 235.289735)"><g><path d="M 2.3125 0 L 2.3125 -19.25 L 6.015625 -19.25 L 14.515625 -7.53125 L 14.515625 -19.25 L 18.859375 -19.25 L 18.859375 0 L 15.15625 0 L 6.65625 -11.796875 L 6.65625 0 Z M 2.3125 0 "/></g></g></g><g fill="#2e2e2e" fill-opacity="1"><g transform="translate(215.663825, 235.289735)"><g><path d="M 2.3125 0 L 2.3125 -19.25 L 6.6875 -19.25 L 6.6875 0 Z M 2.3125 0 "/></g></g></g><g fill="#2e2e2e" fill-opacity="1"><g transform="translate(243.903756, 235.289735)"><g><path d="M 2.3125 0 L 2.3125 -19.25 L 14.953125 -19.25 L 14.953125 -15.5625 L 6.65625 -15.5625 L 6.65625 -11.578125 L 14.21875 -11.578125 L 14.21875 -7.921875 L 6.65625 -7.921875 L 6.65625 -3.71875 L 15.265625 -3.71875 L 15.265625 0 Z M 2.3125 0 "/></g></g></g><g fill="#2e2e2e" fill-opacity="1"><g transform="translate(279.813975, 235.289735)"><g><path d="M 2.3125 0 L 2.3125 -19.25 L 10.53125 -19.25 C 12 -19.25 13.273438 -18.984375 14.359375 -18.453125 C 15.441406 -17.921875 16.273438 -17.160156 16.859375 -16.171875 C 17.441406 -15.179688 17.734375 -14 17.734375 -12.625 C 17.734375 -11.207031 17.410156 -9.988281 16.765625 -8.96875 C 16.128906 -7.957031 15.234375 -7.195312 14.078125 -6.6875 L 18.0625 0 L 13 0 L 9.5625 -6 L 6.6875 -6 L 6.6875 0 Z M 6.625 -9.6875 L 9.953125 -9.6875 C 11.035156 -9.6875 11.863281 -9.9375 12.4375 -10.4375 C 13.019531 -10.9375 13.3125 -11.65625 13.3125 -12.59375 C 13.3125 -13.53125 13.019531 -14.25 12.4375 -14.75 C 11.863281 -15.257812 11.035156 -15.515625 9.953125 -15.515625 L 6.625 -15.515625 Z M 6.625 -9.6875 "/></g></g></g><g fill="#2e2e2e" fill-opacity="1"><g transform="translate(318.421078, 235.289735)"><g/></g></g></svg>